<svg xmlns="http://www.w3.org/2000/svg" viewBox="0 0 230 160" enable-background="new 0 0 230 160"><style type="text/css">.st0{fill:#FFFFFF;} .st1{opacity:0.8;fill:#F52757;} .st2{opacity:0.7;fill:#F52757;} .st3{opacity:0.6;fill:#F52757;} .st4{opacity:0.68;fill:#1E88E5;} .st5{opacity:0.76;fill:#1E88E5;} .st6{opacity:0.84;fill:#1E88E5;} .st7{opacity:0.94;fill:#1E88E5;} .st8{opacity:0.65;fill:#F52757;} .st9{fill:#F52757;} .st10{fill:#1E88E5;} .st11{opacity:0.92;fill:#0D47A1;} .st12{fill:#0D47A1;}</style><path class="st0" d="M93.1 4.3H49.4L5.7 80l43.7 75.7h43.7l65.6-113.6L180.6 80l-43.7 75.7h43.7L224.3 80 180.6 4.3h-43.7L71.3 117.9 49.4 80z"/><path class="st1" d="M115 42.1l21.8-37.8 21.9 37.8z"/><path class="st2" d="M115 42.1L136.8 80l21.9-37.9z"/><path class="st3" d="M93.1 80L115 42.1 136.8 80z"/><path class="st4" d="M49.4 4.3l21.9 37.8L93.1 4.3z"/><path class="st5" d="M27.6 42.1L49.4 4.3l21.9 37.8z"/><path class="st6" d="M27.6 42.1L49.4 80l21.9-37.9z"/><path class="st7" d="M5.7 80l21.9-37.9L49.4 80z"/><path class="st8" d="M93.1 80l21.9 37.9L136.8 80z"/><path class="st2" d="M71.3 117.9L93.1 80l21.9 37.9z"/><path class="st1" d="M71.3 117.9l21.8 37.8 21.9-37.8z"/><path class="st9" d="M49.4 155.7l21.9-37.8 21.8 37.8z"/><path class="st10" d="M5.7 80l21.9 37.9L49.4 80z"/><path class="st4" d="M180.6 155.7l-21.9-37.8-21.8 37.8z"/><path class="st5" d="M202.4 117.9l-21.8 37.8-21.9-37.8z"/><path class="st6" d="M202.4 117.9L180.6 80l-21.9 37.9z"/><path class="st7" d="M224.3 80l-21.9 37.9L180.6 80z"/><path class="st10" d="M224.3 80l-21.9-37.9L180.6 80z"/><path class="st11" d="M71.3 117.9L49.4 80l-21.8 37.9z"/><path class="st12" d="M71.3 117.9l-21.9 37.8-21.8-37.8z"/><path class="st9" d="M136.8 4.3l21.9 37.8 21.9-37.8z"/><path class="st12" d="M202.4 42.1L180.6 4.3l-21.9 37.8z"/><path class="st11" d="M202.4 42.1L180.6 80l-21.9-37.9z"/></svg>